<svg xmlns="http://www.w3.org/2000/svg" width="142.029" height="62.203" viewBox="0 0 142.029 62.203">
  <g id="walkover_logo" transform="translate(-150.499 -20)">
    <g id="Group_1" data-name="Group 1" transform="translate(150.499 20)">
      <path id="_607925272" d="M46.392,10.964a5.314,5.314,0,0,0-4.205-3.418l-23-3.435A4.971,4.971,0,0,0,14.3,6.284L.67,26.868A4.06,4.06,0,0,0,.646,31.3L11.719,48.417a6.756,6.756,0,0,0,3.847,2.838l22.293,6.289A3.565,3.565,0,0,0,42,55.739L52.936,34.4a6.141,6.141,0,0,0,.3-4.925L46.393,10.966Z" transform="translate(0 -4.057)" fill="#dc281e" fill-rule="evenodd"/>
      <path id="_607925392" d="M33.809,14.63c1.314.226,1.611,1.675.641,3.234A5.194,5.194,0,0,1,31,20.264q-3.079,2.968-6.158,5.941c-.154,1.953-2.73,4.361-4.664,3.943-2.191-.475-.747-3.334.366-4.378l-.434-3.382a1.723,1.723,0,0,1-1.4-.329l-4.873,2.734c-.58,1.515-2.629,3.409-4.314,3.044-1.2-.26-1.391-1.683-.441-3.187a5.6,5.6,0,0,1,1.6-1.633l1.007-4.039c-.049-.005-.1-.013-.145-.022-1.191-.229-1.39-1.615-.453-3.093a5.6,5.6,0,0,1,1.908-1.823l1.076-3.7c-.89-.376-1.018-1.526-.139-2.91s2.632-2.49,3.828-2.305,1.427,1.531.494,3A5.632,5.632,0,0,1,16.51,9.852l-1.126,3.874c.8.445.853,1.654.039,2.938A5.587,5.587,0,0,1,14.2,18.025l-1.092,4.382a1.388,1.388,0,0,1,.266.108l5.275-2.961q.092-.181.208-.364c.953-1.515,2.73-2.556,3.986-2.327s1.51,1.654.551,3.186a5.59,5.59,0,0,1-1.184,1.334q.207,1.6.411,3.192a2.683,2.683,0,0,1,.817-.085l5.7-5.5A3.18,3.18,0,0,1,29.7,17.01c.963-1.54,2.8-2.608,4.11-2.382Zm10.433,3.326c.6-1.259,1.481-.991,1.97.547a7.858,7.858,0,0,1-.163,4.919c-.571,1.235-1.442,1.066-1.947-.408a7.8,7.8,0,0,1,.14-5.056ZM46.036,31.2c.555-1.226,1.363-1.125,1.807.189a7.065,7.065,0,0,1-.175,4.461c-.531,1.2-1.328,1.183-1.787-.074a7.013,7.013,0,0,1,.155-4.576Zm-4.523-.989c.606-1.3,1.517-1.177,2.035.227a7.139,7.139,0,0,1-.127,4.745c-.578,1.272-1.475,1.242-2.01-.1a7.075,7.075,0,0,1,.1-4.873Zm-.4,11.876c.589-1.3,1.478-1.314,1.984-.077a6.484,6.484,0,0,1-.119,4.452c-.561,1.269-1.436,1.37-1.959.192a6.414,6.414,0,0,1,.094-4.566ZM36.281,38.4c.65-1.383,1.661-1.352,2.257.018a6.714,6.714,0,0,1-.068,4.821c-.618,1.349-1.611,1.415-2.225.117a6.64,6.64,0,0,1,.036-4.956Zm-5.056-5.357c.718-1.464,1.868-1.365,2.567.173a7.022,7.022,0,0,1,0,5.245c-.681,1.426-1.807,1.436-2.527-.019a6.942,6.942,0,0,1-.04-5.4Zm-4.741,8.933a7.088,7.088,0,0,1,3.83,3.053c.673,1.272.069,1.954-1.312,1.557a7.155,7.155,0,0,1-3.719-2.956C24.567,42.358,25.083,41.6,26.484,41.979ZM27.5,49.3a6.944,6.944,0,0,1,3.519,2.78c.615,1.107.055,1.649-1.223,1.237a7.025,7.025,0,0,1-3.428-2.7c-.652-1.111-.166-1.718,1.132-1.322Zm-8.139-6.666a7.158,7.158,0,0,1,3.6,2.843c.694,1.179.227,1.814-1.018,1.442a7.234,7.234,0,0,1-3.5-2.759c-.731-1.187-.342-1.88.918-1.526Zm-2.44,3.441a7.135,7.135,0,0,1,3.369,2.644c.672,1.073.268,1.627-.879,1.258a7.2,7.2,0,0,1-3.284-2.564c-.7-1.08-.365-1.691.794-1.338ZM9.731,38.822a7.329,7.329,0,0,1,3.5,2.756c.754,1.169.424,1.827-.716,1.49A7.4,7.4,0,0,1,9.106,40.4c-.785-1.175-.524-1.891.625-1.574ZM2.938,31.311A7.5,7.5,0,0,1,6.6,34.2c.84,1.278.577,2.051-.56,1.75a7.585,7.585,0,0,1-3.555-2.8c-.873-1.284-.689-2.12.455-1.84Z" transform="translate(1.612 -3.176)" fill="#fff" fill-rule="evenodd"/>
    </g>
    <path id="_607925176" d="M36.746,22.129c-1.1,2.889-4.258,10.649-3.145,13.695.647,1.776,4.943-1.536,6.219-6.1,1.039-3.713,2.821-2.666,2.41-1.736-.957,2.164-2.29,3.975-1.636,5.172,1.313,2.405,5.88-4.147,7.262-7.111.322-.69,1.522.3-.7,3.41-1.233,1.724-1.285,1.187-1.753,3.812a3.852,3.852,0,0,0,1.282,3.668l-.066.111c-1.893-1.43-1.978-3.017-1.5-5.188-1.5,1.7-4.382,5-5.664,1.545-2.428,3.621-6.33,5.17-6.8,2.359C31.825,30.848,34.922,26.393,36.746,22.129Zm66.214,9.878c7.153-5.256.218-5.3-.784,1.614-.232,1.6,1.844,3.138,5.344-1.911l1.862-3.042c-.147-3.194.3-6.561,3.414-8.3,1.048-.586,1.523,1.262.954,2.4-5.218,10.406-2.706,4.136-4.222,13.052l-.1-.032.059-4.867c-7.01,10.866-11.233,2.448-5.583-2.536C106.161,26.384,109.521,28.208,102.96,32.007Zm7.054-4.372c.689-1.128,2.814-5,2.917-6.214-1.459.791-3.014,3.719-2.916,6.214ZM113.165,21.3ZM95.836,30.641a7.248,7.248,0,0,1,.054,3.018c2.534-1.641,3.182-4.177,4.017-4.516.781-.316.689,1.3-.719,3.1a2.47,2.47,0,0,0,.164.331l-.058.082a1.1,1.1,0,0,1-.282-.2c-1.657,1.98-4.28,3.093-4.157,2.08Zm-8.638-6.4c-1.176,2.385-5.162,10.051-5.412,12.182-.737,6.267,6.15,2.448,9.861-4.87-9.478-5.09,2-28.9,8.009-25.354,5.538,3.264-4.319,21.774-6.876,25.544.591.263.518.352-.1.144-7.437,12.344-12.748,9.059-11.588,4.486,1.157-4.216,4.031-8.737,6.1-12.128Zm4.666,7c5.436-8.316,12.7-29.212,4.666-23.646C91.272,11.237,84.5,26.441,91.864,31.239ZM74.37,22.453c-.539,6.7-.218,4.752-1.875,11.276,5.925-8.544,7.1-6.457,12.632-10.816l.086.065C79.8,27.419,77.129,28.273,74,33.587a25.329,25.329,0,0,1,2.686,2.385c-1.223.655-2.421-.4-3.207-1.489-2.489,4.311-1.587,1.793-2.745,6.173-.045.17-3.62,1.827-.315-3.577,1.193-1.951,3.342-11.535,3.949-14.625Zm2.795,5.641.005-.006-.008.008ZM53,31.309c.511-.835,2.224-2.852-.153-2.529-2.834.385-6.255,7.959-.219,3.159,2.463-1.959,1.72-3.668,3.351-4.8.222-.154.463.2.438.38-.406,2.859-2.487,2.586-1.4,5.783.553,1.618,1.66,2.045,3.228,1.2L63.1,31.587A150.892,150.892,0,0,1,74.323,2.43C75.854-.5,80.812-1.53,79.532,3.647c-2.8,11.907-7.413,21.245-15.2,28.483-2.637,10.207-4.343,19.335-2.924,30.044l-.122.028c-2.91-10.354-1.021-19.29,1.491-29.358-1.532.894-4.165,2.7-5.61,2.89-2.164.184-3.292-2.012-3.254-3.986-4.718,4.492-7.362,1.733-3.009-2.331,1.272-1.187,5.422-2.232,2.1,1.893Zm12.178-1.656C72.1,23.174,75.653,12.418,78.29,3.4c.479-3.787-1.758-1.605-3.016-.238L65.181,29.653Zm-6.56,5.615-.008,0,.023-.012Z" transform="translate(178.535 20)" fill="#1d2023" fill-rule="evenodd"/>
  </g>
</svg>
